<?xml version="1.0" encoding="iso-8859-1"?>
<!-- Generator: Adobe Illustrator 19.0.0, SVG Export Plug-In . SVG Version: 6.00 Build 0)  -->
<svg version="1.1" id="Layer_1" xmlns="http://www.w3.org/2000/svg" xmlns:xlink="http://www.w3.org/1999/xlink" x="0px" y="0px"
	 viewBox="0 0 503.641 503.641" style="enable-background:new 0 0 503.641 503.641;" xml:space="preserve">
<path style="fill:#FFE100;" d="M327.361,0.034h-8.393l8.393,92.328c0,9.233,7.554,16.787,16.787,16.787h75.541V478.46
	c0,9.233-6.715,16.787-14.269,16.787h28.538c5.875,0,10.911-5.036,10.911-10.911V109.149L327.361,0.034z"/>
<path style="fill:#FECC00;" d="M419.689,109.149h-83.934c-9.233,0-16.787-7.554-16.787-16.787V8.427L419.689,109.149z"/>
<path style="fill:#FFE100;" d="M394.509,109.149h-61.272c-7.554,0-14.269-7.554-14.269-16.787V8.427H106.614
	c-7.554,0-14.269,7.554-14.269,16.787V478.46c0,9.233,6.715,16.787,14.269,16.787H380.24c7.554,0,14.269-7.554,14.269-16.787
	V109.149z"/>
<path style="fill:#FFA800;" d="M394.509,109.149V478.46c0,9.233-6.715,16.787-14.269,16.787h22.662
	c9.233,0,16.787-7.554,16.787-16.787V109.149H394.509z"/>
<path style="fill:#FFFFFF;" d="M92.345,478.46V25.214c0-9.233,6.715-16.787,14.269-16.787H83.951
	c-9.233,0-16.787,7.554-16.787,16.787V478.46c0,9.233,7.554,16.787,16.787,16.787h22.662
	C99.06,495.247,92.345,487.693,92.345,478.46"/>
<path d="M402.902,503.641H83.951c-14.269,0-25.18-10.911-25.18-25.18V218.264c0-5.036,3.357-8.393,8.393-8.393
	s8.393,3.357,8.393,8.393V478.46c0,5.036,3.357,8.393,8.393,8.393h318.951c5.036,0,8.393-3.357,8.393-8.393V117.542h-75.541
	c-14.269,0-25.18-10.911-25.18-25.18V16.821H83.951c-5.036,0-8.393,4.197-8.393,8.393v125.902c0,5.036-3.357,8.393-8.393,8.393
	s-8.393-3.357-8.393-8.393V25.214c0-14.269,10.911-25.18,25.18-25.18h235.016c5.036,0,8.393,3.357,8.393,8.393v83.934
	c0,5.036,3.357,8.393,8.393,8.393h83.934c5.036,0,8.393,3.357,8.393,8.393V478.46C428.083,492.729,417.171,503.641,402.902,503.641z
	"/>
<path d="M75.558,184.69c0-5.036-3.357-8.393-8.393-8.393s-8.393,3.357-8.393,8.393c0,5.036,3.357,8.393,8.393,8.393
	S75.558,189.726,75.558,184.69"/>
<polygon style="fill:#63D3FD;" points="268.607,310.591 344.148,310.591 344.148,209.87 268.607,209.87 "/>
<polygon style="fill:#3DB9F9;" points="344.148,310.591 369.328,310.591 369.328,209.87 344.148,209.87 "/>
<path d="M419.689,117.542h-83.934c-14.269,0-25.18-10.911-25.18-25.18V8.427c0-3.357,1.679-6.715,5.036-7.554
	c3.357-1.679,6.715-0.839,9.233,1.679l100.721,100.721c2.518,2.518,3.357,5.875,1.679,9.233
	C426.404,115.864,423.047,117.542,419.689,117.542z M327.361,28.572v63.79c0,5.036,3.357,8.393,8.393,8.393h63.79L327.361,28.572z"
	/>
<path d="M268.607,117.542H117.525c-5.036,0-8.393-3.357-8.393-8.393c0-5.036,3.357-8.393,8.393-8.393h151.082
	c5.036,0,8.393,3.357,8.393,8.393C277.001,114.185,273.643,117.542,268.607,117.542z"/>
<path d="M369.328,167.903H117.525c-5.036,0-8.393-3.357-8.393-8.393c0-5.036,3.357-8.393,8.393-8.393h251.803
	c5.036,0,8.393,3.357,8.393,8.393C377.722,164.545,374.365,167.903,369.328,167.903z"/>
<path d="M226.64,218.264H117.525c-5.036,0-8.393-3.357-8.393-8.393c0-5.036,3.357-8.393,8.393-8.393H226.64
	c5.036,0,8.393,3.357,8.393,8.393C235.033,214.906,231.676,218.264,226.64,218.264z"/>
<path d="M226.64,268.624H117.525c-5.036,0-8.393-3.357-8.393-8.393s3.357-8.393,8.393-8.393H226.64c5.036,0,8.393,3.357,8.393,8.393
	S231.676,268.624,226.64,268.624z"/>
<path d="M226.64,318.985H117.525c-5.036,0-8.393-3.357-8.393-8.393s3.357-8.393,8.393-8.393H226.64c5.036,0,8.393,3.357,8.393,8.393
	S231.676,318.985,226.64,318.985z"/>
<path d="M369.328,369.345H117.525c-5.036,0-8.393-3.357-8.393-8.393c0-5.036,3.357-8.393,8.393-8.393h251.803
	c5.036,0,8.393,3.357,8.393,8.393C377.722,365.988,374.365,369.345,369.328,369.345z"/>
<path d="M369.328,419.706H117.525c-5.036,0-8.393-3.357-8.393-8.393c0-5.036,3.357-8.393,8.393-8.393h251.803
	c5.036,0,8.393,3.357,8.393,8.393C377.722,416.349,374.365,419.706,369.328,419.706z"/>
<path d="M369.328,318.985H268.607c-5.036,0-8.393-3.357-8.393-8.393V209.87c0-5.036,3.357-8.393,8.393-8.393h100.721
	c5.036,0,8.393,3.357,8.393,8.393v100.721C377.722,315.627,374.365,318.985,369.328,318.985z M277.001,302.198h83.934v-83.934
	h-83.934V302.198z"/>
<g>
</g>
<g>
</g>
<g>
</g>
<g>
</g>
<g>
</g>
<g>
</g>
<g>
</g>
<g>
</g>
<g>
</g>
<g>
</g>
<g>
</g>
<g>
</g>
<g>
</g>
<g>
</g>
<g>
</g>
</svg>
