<?xml version="1.0" encoding="iso-8859-1"?>
<!-- Generator: Adobe Illustrator 19.0.0, SVG Export Plug-In . SVG Version: 6.00 Build 0)  -->
<svg version="1.1" id="Layer_1" xmlns="http://www.w3.org/2000/svg" xmlns:xlink="http://www.w3.org/1999/xlink" x="0px" y="0px"
	 viewBox="0 0 512 512" style="enable-background:new 0 0 512 512;" xml:space="preserve">
<path style="fill:#CCCCCC;" d="M448.128,433.096h-24v-16h24V433.096z M400.128,433.096h-24v-16h24V433.096z M352.128,433.096h-24
	v-16h24V433.096z M304.128,433.096h-24v-16h24V433.096z M256.128,433.096h-24v-16h24V433.096z M208.128,433.096h-24v-16h24V433.096z
	 M160.128,433.096h-24v-16h24V433.096z M112.128,433.096h-24v-16h24V433.096z M64.128,433.096H49.872l18.776-32.456l13.84,8
	l-11.824,20.464l-6.728-3.896L64.128,433.096z M429.384,408.448l-12-20.8l13.84-8l12,20.8L429.384,408.448z M94.52,387.888l-13.84-8
	l12-20.8l13.84,8L94.52,387.888z M405.352,366.904l-12-20.8l13.84-8l12,20.8L405.352,366.904z M118.552,346.344l-13.84-8l12-20.8
	l13.84,8L118.552,346.344z M381.304,325.352l-12-20.8l13.84-8l12,20.8L381.304,325.352z M142.592,304.8l-13.84-8l12-20.8l13.84,8
	L142.592,304.8z M357.256,283.808l-12-20.8l13.84-8l12,20.8L357.256,283.808z M166.632,263.256l-13.84-8l12-20.8l13.84,8
	L166.632,263.256z M333.216,242.264l-12-20.8l13.84-8l12,20.8L333.216,242.264z M190.68,221.704l-13.84-8l12-20.8l13.84,8
	L190.68,221.704z M309.176,200.72l-12-20.8l13.84-8l12,20.8L309.176,200.72z M214.72,180.16l-13.84-8l12-20.8l13.84,8L214.72,180.16
	z M285.12,159.176l-12-20.8l13.84-8l12,20.8L285.12,159.176z M238.72,138.616l-13.84-8l12-20.8l13.84,8L238.72,138.616z
	 M261.104,117.6l-12-20.8l6.8-3.936l-6.88-3.936l7.088-12l18.832,32.672L261.104,117.6z"/>
<g>
	<rect x="206.448" y="31.888" style="fill:#E21B1B;" width="99.096" height="99.096"/>
	<rect x="412.904" y="381.016" style="fill:#E21B1B;" width="99.096" height="99.096"/>
	<rect y="381.016" style="fill:#E21B1B;" width="99.096" height="99.096"/>
</g>
<g>
</g>
<g>
</g>
<g>
</g>
<g>
</g>
<g>
</g>
<g>
</g>
<g>
</g>
<g>
</g>
<g>
</g>
<g>
</g>
<g>
</g>
<g>
</g>
<g>
</g>
<g>
</g>
<g>
</g>
</svg>
