<?xml version="1.0" encoding="iso-8859-1"?>
<!-- Generator: Adobe Illustrator 19.0.0, SVG Export Plug-In . SVG Version: 6.00 Build 0)  -->
<svg version="1.1" id="Layer_1" xmlns="http://www.w3.org/2000/svg" xmlns:xlink="http://www.w3.org/1999/xlink" x="0px" y="0px"
	 viewBox="0 0 503.607 503.607" style="enable-background:new 0 0 503.607 503.607;" xml:space="preserve">
<g transform="translate(0 1)">
	<polygon style="fill:#00AD55;" points="419.672,57.754 419.672,99.721 436.459,99.721 436.459,124.902 486.82,124.902 
		486.82,57.754 	"/>
	<g>
		<polygon style="fill:#00DA6C;" points="419.672,57.754 419.672,99.721 436.459,99.721 436.459,124.902 461.639,124.902 
			461.639,57.754 		"/>
		<polygon style="fill:#00DA6C;" points="411.279,99.721 369.311,99.721 369.311,141.689 369.311,166.869 386.098,166.869 
			411.279,166.869 436.459,166.869 436.459,99.721 		"/>
	</g>
	<g>
		<path style="fill:#FFA800;" d="M419.672,40.967v16.787h50.361V40.967c0-18.466-15.108-33.574-33.574-33.574h-50.361
			C404.564,7.393,419.672,22.502,419.672,40.967"/>
		<path style="fill:#FFA800;" d="M436.459,124.902v41.967h-16.787v293.77c0,18.466-15.108,33.574-33.574,33.574h50.361
			c18.466,0,33.574-15.108,33.574-33.574V124.902H436.459z"/>
	</g>
	<g>
		<path style="fill:#FECC00;" d="M369.311,40.967v58.754h50.361V40.967c0-18.466-15.108-33.574-33.574-33.574h-50.361
			C354.203,7.393,369.311,22.502,369.311,40.967"/>
		<path style="fill:#FECC00;" d="M369.311,166.869v293.77c0,18.466-15.108,33.574-33.574,33.574h50.361
			c18.466,0,33.574-15.108,33.574-33.574v-293.77H369.311z"/>
	</g>
	<path style="fill:#FFE100;" d="M335.738,7.393H75.541c-18.466,0-33.574,15.108-33.574,33.574v419.672
		c0,18.466,15.108,33.574,33.574,33.574h260.197c18.466,0,33.574-15.108,33.574-33.574V40.967
		C369.311,22.502,354.203,7.393,335.738,7.393"/>
	<path style="fill:#FFFFFF;" d="M41.967,460.639V40.967c0-18.466,15.108-33.574,33.574-33.574h-25.18
		c-18.466,0-33.574,15.108-33.574,33.574v419.672c0,18.466,15.108,33.574,33.574,33.574h25.18
		C57.075,494.213,41.967,479.105,41.967,460.639"/>
	<path style="fill:#00DA6C;" d="M283.698,380.902l-15.108-20.984l-40.289,40.289c-3.357,3.357-10.072,0.839-10.072-4.197V7.393
		h75.541v369.311C293.77,381.741,287.056,385.098,283.698,380.902"/>
	<path style="fill:#00AD55;" d="M293.77,7.393v369.311c0,2.518-1.679,4.197-3.357,5.036l18.466,18.466
		c3.357,3.357,10.072,0.839,10.072-4.197V7.393H293.77z"/>
	<path d="M335.738,502.607H50.361c-23.502,0-41.967-18.466-41.967-41.967v-41.967c0-5.036,3.357-8.393,8.393-8.393
		s8.393,3.357,8.393,8.393v41.967c0,14.269,10.911,25.18,25.18,25.18h285.377c14.269,0,25.18-10.911,25.18-25.18V40.967
		c0-14.269-10.911-25.18-25.18-25.18H50.361c-14.269,0-25.18,11.751-25.18,25.18v310.557c0,5.036-3.357,8.393-8.393,8.393
		s-8.393-3.357-8.393-8.393V40.967C8.393,17.466,26.859-1,50.361-1h285.377c23.502,0,41.967,18.466,41.967,41.967v419.672
		C377.705,484.141,359.239,502.607,335.738,502.607z"/>
	<path d="M25.18,385.098c0-5.036-3.357-8.393-8.393-8.393s-8.393,3.357-8.393,8.393c0,5.036,3.357,8.393,8.393,8.393
		S25.18,390.134,25.18,385.098"/>
	<path d="M436.459,175.262h-67.148c-5.036,0-8.393-3.357-8.393-8.393V99.721c0-5.036,3.357-8.393,8.393-8.393h67.148
		c5.036,0,8.393,3.357,8.393,8.393v67.148C444.852,171.905,441.495,175.262,436.459,175.262z M377.705,158.475h50.361v-50.361
		h-50.361V158.475z"/>
	<path d="M419.672,108.115h-50.361c-5.036,0-8.393-3.357-8.393-8.393V40.967c0-14.269-10.911-25.18-25.18-25.18
		c-5.036,0-8.393-3.357-8.393-8.393S330.702-1,335.738-1h50.361c23.502,0,41.967,18.466,41.967,41.967v58.754
		C428.066,104.757,424.708,108.115,419.672,108.115z M377.705,91.328h33.574V40.967c0-14.269-10.911-25.18-25.18-25.18h-16.787
		c5.036,6.715,8.393,15.948,8.393,25.18V91.328z"/>
	<path d="M386.098,502.607h-50.361c-5.036,0-8.393-3.357-8.393-8.393c0-5.036,3.357-8.393,8.393-8.393
		c14.269,0,25.18-10.911,25.18-25.18v-293.77c0-5.036,3.357-8.393,8.393-8.393h50.361c5.036,0,8.393,3.357,8.393,8.393v293.77
		C428.066,484.141,409.6,502.607,386.098,502.607z M369.311,485.82h16.787c14.269,0,25.18-10.911,25.18-25.18V175.262h-33.574
		v285.377C377.705,469.872,374.348,479.105,369.311,485.82z"/>
	<path d="M470.033,66.148h-50.361c-5.036,0-8.393-3.357-8.393-8.393V40.967c0-14.269-10.911-25.18-25.18-25.18
		c-5.036,0-8.393-3.357-8.393-8.393S381.062-1,386.098-1h50.361c23.502,0,41.967,18.466,41.967,41.967v16.787
		C478.426,62.79,475.069,66.148,470.033,66.148z M428.066,49.361h33.574v-8.393c0-14.269-10.911-25.18-25.18-25.18h-16.787
		c5.036,6.715,8.393,15.948,8.393,25.18V49.361z"/>
	<path d="M436.459,502.607h-50.361c-5.036,0-8.393-3.357-8.393-8.393c0-5.036,3.357-8.393,8.393-8.393
		c14.269,0,25.18-10.911,25.18-25.18v-293.77c0-5.036,3.357-8.393,8.393-8.393h8.393v-33.574c0-5.036,3.357-8.393,8.393-8.393
		h33.574c5.036,0,8.393,3.357,8.393,8.393v335.738C478.426,484.141,459.961,502.607,436.459,502.607z M419.672,485.82h16.787
		c14.269,0,25.18-10.911,25.18-25.18V133.295h-16.787v33.574c0,5.036-3.357,8.393-8.393,8.393h-8.393v285.377
		C428.066,469.872,424.708,479.105,419.672,485.82z"/>
	<path d="M486.82,133.295h-50.361c-5.036,0-8.393-3.357-8.393-8.393v-16.787h-8.393c-5.036,0-8.393-3.357-8.393-8.393V57.754
		c0-5.036,3.357-8.393,8.393-8.393h67.148c5.036,0,8.393,3.357,8.393,8.393v67.148C495.213,129.938,491.856,133.295,486.82,133.295z
		 M444.852,116.508h33.574V66.148h-50.361v25.18h8.393c5.036,0,8.393,3.357,8.393,8.393V116.508z"/>
	<path d="M224.105,410.279c-1.679,0-3.357,0-5.875-0.839c-5.036-2.518-8.393-7.554-8.393-13.43V7.393
		c0-5.036,3.357-8.393,8.393-8.393h100.721c5.036,0,8.393,3.357,8.393,8.393V396.01c0,5.875-3.357,10.911-9.233,13.43
		c-5.036,2.518-11.751,0.839-15.948-3.357l-33.574-34.413l-34.413,34.413C231.659,408.6,227.462,410.279,224.105,410.279z
		 M314.754,394.331L314.754,394.331L314.754,394.331z M226.623,15.787v374.348l36.092-36.092c3.357-3.357,8.393-3.357,11.751,0
		l36.092,36.092V15.787H226.623z"/>
	<path d="M134.295,74.541H58.754c-5.036,0-8.393-3.357-8.393-8.393s3.357-8.393,8.393-8.393h75.541c5.036,0,8.393,3.357,8.393,8.393
		S139.331,74.541,134.295,74.541z"/>
	<path d="M134.295,108.115H58.754c-5.036,0-8.393-3.357-8.393-8.393s3.357-8.393,8.393-8.393h75.541
		c5.036,0,8.393,3.357,8.393,8.393S139.331,108.115,134.295,108.115z"/>
	<path d="M251.803,99.721c-5.036,0-8.393-3.357-8.393-8.393V7.393c0-5.036,3.357-8.393,8.393-8.393c5.036,0,8.393,3.357,8.393,8.393
		v83.934C260.197,96.364,256.839,99.721,251.803,99.721z"/>
	<path d="M285.377,133.295c-5.036,0-8.393-3.357-8.393-8.393V7.393c0-5.036,3.357-8.393,8.393-8.393
		c5.036,0,8.393,3.357,8.393,8.393v117.508C293.77,129.938,290.413,133.295,285.377,133.295z"/>
</g>
<g>
</g>
<g>
</g>
<g>
</g>
<g>
</g>
<g>
</g>
<g>
</g>
<g>
</g>
<g>
</g>
<g>
</g>
<g>
</g>
<g>
</g>
<g>
</g>
<g>
</g>
<g>
</g>
<g>
</g>
</svg>
