<?xml version="1.0" encoding="iso-8859-1"?>
<!-- Generator: Adobe Illustrator 19.0.0, SVG Export Plug-In . SVG Version: 6.00 Build 0)  -->
<svg version="1.1" id="Layer_1" xmlns="http://www.w3.org/2000/svg" xmlns:xlink="http://www.w3.org/1999/xlink" x="0px" y="0px"
	 viewBox="0 0 512 512" style="enable-background:new 0 0 512 512;" xml:space="preserve">
<polygon style="fill:#7E8488;" points="504.082,15.835 504.082,58.062 424.907,58.062 87.093,58.062 7.918,58.062 7.918,15.835 "/>
<rect x="229.608" y="100.289" style="fill:#AFB6BB;" width="52.784" height="42.227"/>
<polygon style="fill:#E7ECED;" points="424.907,58.062 424.907,100.289 282.392,100.289 229.608,100.289 87.093,100.289 
	87.093,58.062 "/>
<rect x="34.309" y="248.082" style="fill:#FFD311;" width="443.381" height="211.134"/>
<g>
	<polygon style="fill:#AFB6BB;" points="493.526,459.217 493.526,496.165 18.474,496.165 18.474,459.217 34.309,459.217 
		477.691,459.217 	"/>
	<polygon style="fill:#AFB6BB;" points="493.526,211.134 493.526,248.082 477.691,248.082 34.309,248.082 18.474,248.082 
		18.474,211.134 256,211.134 	"/>
</g>
<path style="fill:#FAB91C;" d="M149.536,248.082H34.309v211.134h443.381v-34.68C333.856,409.979,212.567,342.155,149.536,248.082z"
	/>
<g>
	<rect x="18.474" y="211.134" style="fill:#9AA1A6;" width="237.526" height="36.948"/>
	<rect x="18.474" y="459.217" style="fill:#9AA1A6;" width="237.526" height="36.948"/>
</g>
<path d="M290.309,150.433v-42.227h142.515V65.979H512V7.918H0v58.062h79.175v42.227h142.515v42.227h26.392v52.784H10.557V256h15.835
	v195.299H10.557v52.784h490.887v-52.784h-15.835V256h15.835v-52.783H263.918v-52.784H290.309z M485.608,488.247H26.392v-21.113
	h459.217V488.247z M42.227,451.299V256h427.546v195.299H42.227z M485.608,240.165H26.392v-21.113h459.217V240.165z M15.835,50.144
	V23.753h480.33v26.392H15.835z M95.01,92.371V65.979H416.99v26.392H95.01z M237.526,108.206h36.948v26.392h-36.948V108.206z"/>
<g>
	<rect x="55.423" y="271.835" style="fill:#FFFFFF;" width="21.113" height="15.835"/>
	<rect x="55.423" y="419.629" style="fill:#FFFFFF;" width="21.113" height="15.835"/>
	<rect x="435.464" y="271.835" style="fill:#FFFFFF;" width="21.113" height="15.835"/>
	<rect x="435.464" y="419.629" style="fill:#FFFFFF;" width="21.113" height="15.835"/>
	<rect x="248.082" y="279.753" style="fill:#FFFFFF;" width="15.835" height="147.794"/>
	<rect x="374.763" y="279.753" style="fill:#FFFFFF;" width="15.835" height="147.794"/>
	<rect x="121.402" y="279.753" style="fill:#FFFFFF;" width="15.835" height="147.794"/>
	<rect x="184.742" y="279.753" style="fill:#FFFFFF;" width="15.835" height="147.794"/>
	<rect x="311.423" y="279.753" style="fill:#FFFFFF;" width="15.835" height="147.794"/>
</g>
<g>
</g>
<g>
</g>
<g>
</g>
<g>
</g>
<g>
</g>
<g>
</g>
<g>
</g>
<g>
</g>
<g>
</g>
<g>
</g>
<g>
</g>
<g>
</g>
<g>
</g>
<g>
</g>
<g>
</g>
</svg>
